Formula 1 2013 - R02 Malaysian GP - Free Practice 2 - Aired on 22 March 2013 on Sky F1 with English commentary.

Recorded by Hannibal

Video

ID                             : 0
Format                         : MPEG-4 Visual (AVI)
Format profile                 : Advanced Simple@L5
Format settings, BVOP          : 2
Format settings, QPel          : No
Format settings, GMC           : No warppoints
Format settings, Matrix        : Default (H.263)
Muxing mode                    : Packed bitstream
Codec ID                       : XVID
Codec ID/Hint                  : XviD
Duration                       : 1h 43mn
Bit rate                       : 1 152 Kbps
Width                          : 624 pixels
Height                         : 352 pixels
Display aspect ratio           : 16:9
Frame rate                     : 25.000 fps
Color space                    : YUV
Chroma subsampling             : 4:2:0
Bit depth                      : 8 bits
Scan type                      : Progressive
Compression mode               : Lossy
Bits/(Pixel*Frame)             : 0.210
Stream size                    : 854 MiB (86%)
Writing library                : XviD 1.2.1 (UTC 2008-12-04)

Audio

ID                             : 1
Format                         : MPEG Audio
Format version                 : Version 1
Format profile                 : Layer 3
Mode                           : Joint stereo
Mode extension                 : MS Stereo
Codec ID                       : 55
Codec ID/Hint                  : MP3
Duration                       : 1h 43mn
Bit rate mode                  : Constant
Bit rate                       : 128 Kbps
Channel(s)                     : 2 channels
Sampling rate                  : 48.0 KHz
Compression mode               : Lossy
Stream size                    : 94.9 MiB (10%)
Alignment                      : Aligned on interleaves




Screens :
 
http://i.imgur.com/6yEgmuA.jpg
 
http://i.imgur.com/Tf8qNJW.jpg
 
http://i.imgur.com/6OvhfWZ.jpg